<svg xmlns="http://www.w3.org/2000/svg" xmlns:xlink="http://www.w3.org/1999/xlink" id="svg" version="1.1" viewBox="6.88 66.61 387.45 118.59"><g id="svgg"><path id="path0" d="M40.479 69.860 C 35.195 71.228,33.808 73.219,32.592 81.186 C 29.388 102.172,23.155 116.805,11.766 130.074 C 8.446 133.942,9.112 134.967,14.823 134.788 C 35.401 134.141,47.184 137.162,57.745 145.791 L 59.048 146.856 64.131 143.523 C 66.926 141.691,69.286 140.127,69.374 140.049 C 69.463 139.970,70.054 137.187,70.688 133.864 C 71.322 130.541,71.893 127.590,71.957 127.306 L 72.074 126.790 79.537 126.850 L 87.000 126.910 86.925 127.778 L 86.850 128.647 90.397 126.296 C 93.750 124.074,93.945 123.905,93.951 123.208 C 93.954 122.803,94.835 119.878,95.908 116.709 C 101.997 98.725,104.870 85.655,104.255 78.732 C 103.976 75.584,102.656 75.040,98.518 76.366 C 85.166 80.643,80.062 80.454,65.823 75.156 C 52.262 70.110,45.206 68.636,40.479 69.860 M66.819 84.112 L 73.546 84.723 73.489 85.520 C 73.457 85.958,73.071 89.749,72.632 93.943 C 72.192 98.138,71.910 101.640,72.005 101.726 C 72.253 101.950,75.505 102.978,77.715 103.531 C 84.697 105.279,90.528 104.911,92.865 102.574 C 93.133 102.306,93.300 102.233,93.236 102.412 C 93.172 102.591,92.154 106.004,90.973 109.998 C 89.553 114.802,88.700 117.328,88.456 117.459 C 85.205 119.210,73.137 119.496,68.502 117.931 L 67.236 117.503 66.628 118.344 C 66.294 118.806,64.379 121.564,62.372 124.472 C 60.365 127.380,58.629 129.760,58.514 129.760 C 57.891 129.761,44.242 126.008,44.242 125.835 C 44.242 125.722,45.991 123.066,48.129 119.932 C 50.267 116.799,52.068 114.102,52.130 113.940 C 52.211 113.730,51.629 113.500,50.124 113.146 C 40.542 110.891,34.141 111.189,31.199 114.025 C 30.582 114.620,30.116 114.992,30.164 114.851 C 30.212 114.710,31.412 111.234,32.830 107.126 L 35.409 99.657 36.918 99.191 C 42.868 97.353,51.539 96.651,55.673 97.672 L 56.957 97.989 57.563 93.521 C 57.897 91.064,58.341 87.796,58.549 86.260 C 58.922 83.508,58.937 83.467,59.510 83.484 C 59.829 83.494,63.119 83.777,66.819 84.112 " stroke="none" fill="#eeeeee" fill-rule="evenodd"/><path id="path1" d="M47.092 97.372 C 43.838 97.665,35.721 99.301,35.462 99.717 C 35.429 99.769,30.609 113.748,30.371 114.481 C 30.309 114.669,30.485 114.546,30.760 114.206 C 32.167 112.470,36.316 111.380,40.707 111.591 C 44.032 111.751,51.875 113.146,52.402 113.672 C 52.438 113.707,50.621 116.443,48.364 119.751 C 46.107 123.060,44.334 125.831,44.422 125.911 C 44.675 126.136,56.147 129.106,56.274 128.979 C 56.388 128.865,55.299 102.311,55.056 99.281 C 54.926 97.663,54.920 97.649,54.202 97.523 C 52.755 97.269,49.097 97.192,47.092 97.372 M288.385 124.558 C 288.241 125.013,277.081 183.474,277.081 183.775 C 277.081 183.966,278.977 184.036,284.134 184.036 L 291.188 184.036 291.434 182.839 C 292.096 179.621,302.597 124.643,302.556 124.612 C 302.231 124.364,288.463 124.312,288.385 124.558 M346.978 124.800 C 346.844 125.183,335.690 183.467,335.690 183.786 C 335.690 183.963,337.768 184.036,342.741 184.036 L 349.792 184.036 350.007 183.028 C 350.125 182.473,351.442 175.642,352.933 167.847 L 355.644 153.674 356.784 153.023 C 362.702 149.642,368.540 150.884,368.525 155.522 C 368.518 157.559,365.124 176.937,363.620 183.523 L 363.503 184.036 370.691 184.036 C 374.645 184.036,377.879 183.989,377.879 183.931 C 377.879 183.872,379.112 177.400,380.619 169.547 C 384.100 151.411,384.251 149.867,382.925 146.094 C 380.331 138.714,370.096 137.620,360.078 143.653 C 358.643 144.517,357.439 145.145,357.402 145.047 C 357.347 144.899,360.782 126.585,361.157 125.029 L 361.281 124.515 354.179 124.515 C 348.704 124.515,347.055 124.581,346.978 124.800 M128.640 127.993 C 128.508 128.652,126.084 141.300,123.254 156.100 C 120.424 170.901,118.056 183.190,117.990 183.409 C 117.879 183.784,118.341 183.808,125.501 183.808 L 133.130 183.808 134.195 178.278 C 134.780 175.237,135.854 169.642,136.581 165.845 C 137.308 162.048,137.954 158.892,138.015 158.830 C 138.077 158.768,142.590 158.745,148.045 158.778 L 157.964 158.837 155.615 171.038 C 154.323 177.748,153.262 183.368,153.258 183.526 C 153.251 183.754,154.838 183.802,160.821 183.754 L 168.393 183.694 173.816 155.416 C 176.799 139.863,179.241 127.061,179.243 126.967 C 179.246 126.873,175.835 126.796,171.665 126.797 L 164.082 126.798 162.152 136.953 C 161.091 142.538,160.160 147.208,160.085 147.331 C 159.998 147.471,156.296 147.531,150.029 147.494 L 140.111 147.434 141.997 137.628 C 143.035 132.235,143.887 127.591,143.892 127.309 L 143.900 126.796 136.390 126.796 L 128.881 126.796 128.640 127.993 M313.033 129.019 C 312.973 129.239,312.432 132.010,311.831 135.177 L 310.739 140.935 308.049 140.935 C 306.570 140.935,305.359 140.981,305.359 141.038 C 305.359 141.176,303.796 149.352,303.645 150.000 C 303.527 150.509,303.546 150.513,306.153 150.513 C 308.298 150.513,308.780 150.574,308.780 150.845 C 308.780 151.027,307.902 155.722,306.828 161.278 C 303.709 177.425,304.040 180.473,309.197 183.104 C 312.813 184.949,328.266 185.297,330.075 183.575 C 330.239 183.419,332.030 174.819,332.039 174.150 C 332.042 173.865,330.367 174.095,328.184 174.680 C 323.031 176.061,319.735 174.775,319.539 171.308 C 319.466 170.016,321.797 156.512,323.040 151.026 L 323.156 150.513 329.879 150.513 C 333.577 150.513,336.602 150.485,336.602 150.450 C 336.602 150.416,337.012 148.286,337.512 145.718 C 338.013 143.150,338.423 141.023,338.424 140.992 C 338.425 140.961,335.397 140.935,331.695 140.935 L 324.963 140.935 325.076 140.422 C 325.369 139.098,327.252 129.110,327.252 128.881 C 327.252 128.387,313.170 128.525,313.033 129.019 M203.345 139.910 C 190.900 141.935,182.334 150.651,180.267 163.391 C 178.573 173.835,182.482 180.765,191.699 183.656 C 198.868 185.905,210.507 185.300,218.809 182.248 C 221.049 181.424,220.784 181.972,221.968 175.713 L 222.959 170.468 222.141 170.402 C 221.512 170.353,220.697 170.655,218.624 171.709 C 206.386 177.930,194.612 175.719,194.121 167.108 L 194.007 165.108 209.396 165.108 L 224.784 165.108 225.422 161.859 C 227.862 149.438,224.776 142.628,215.621 140.226 C 213.208 139.592,206.376 139.417,203.345 139.910 M249.031 139.809 C 246.638 139.971,240.370 140.921,237.400 141.572 L 236.602 141.747 235.766 145.959 C 234.485 152.415,234.491 152.338,235.251 152.338 C 235.597 152.338,237.275 151.882,238.978 151.326 C 249.787 147.797,258.381 149.019,258.381 154.084 L 258.381 155.497 257.184 155.620 C 256.525 155.688,254.652 155.853,253.022 155.987 C 236.395 157.355,229.557 161.227,227.335 170.534 C 224.142 183.905,238.890 190.028,251.988 180.769 C 253.756 179.519,253.682 179.475,253.254 181.509 C 252.659 184.336,251.868 184.037,259.920 184.036 L 266.933 184.035 269.832 168.699 C 273.107 151.377,273.025 151.915,272.736 149.601 C 271.816 142.250,263.528 138.826,249.031 139.809 M208.813 148.723 C 211.433 149.388,213.225 153.010,212.453 156.084 L 212.306 156.670 204.076 156.670 L 195.846 156.670 195.995 156.043 C 197.280 150.648,203.162 147.288,208.813 148.723 M256.555 164.139 C 256.539 165.663,254.885 172.588,254.451 172.945 C 251.535 175.342,246.175 176.267,243.344 174.861 C 240.127 173.264,241.382 167.720,245.366 165.932 C 247.988 164.755,256.562 163.381,256.555 164.139 " stroke="none" fill="#134494" fill-rule="evenodd"/><path id="path2" d="M41.733 66.755 C 34.088 67.628,31.297 70.901,29.755 80.804 C 26.644 100.778,21.021 114.323,10.663 126.797 C 7.496 130.610,7.345 130.834,7.046 132.171 C 6.020 136.754,9.588 138.383,18.814 137.546 C 31.808 136.367,46.046 140.339,55.582 147.805 C 57.613 149.395,59.324 149.226,59.282 147.441 C 59.248 145.971,49.952 140.313,43.900 138.078 C 35.808 135.090,29.160 134.337,14.823 134.788 C 9.112 134.967,8.446 133.942,11.766 130.074 C 23.155 116.805,29.388 102.172,32.592 81.186 C 33.674 74.098,34.619 72.301,38.088 70.729 C 43.562 68.248,50.034 69.281,65.823 75.156 C 80.062 80.454,85.166 80.643,98.518 76.366 C 102.656 75.040,103.976 75.584,104.255 78.732 C 104.870 85.655,101.997 98.725,95.908 116.709 C 93.796 122.945,93.618 123.915,94.510 124.321 C 96.097 125.044,96.172 124.924,98.635 117.650 C 106.705 93.814,109.275 77.660,105.549 74.184 C 103.909 72.654,101.111 72.507,97.240 73.748 C 84.889 77.709,80.400 77.527,67.047 72.525 C 53.772 67.553,47.423 66.105,41.733 66.755 M384.747 102.953 C 383.511 103.353,382.295 104.479,381.717 105.758 C 381.344 106.583,381.178 106.727,380.599 106.727 C 380.080 106.727,379.868 106.865,379.698 107.312 C 379.396 108.107,379.389 108.096,380.135 108.096 L 380.796 108.096 379.451 111.657 C 378.712 113.615,378.107 115.257,378.107 115.305 C 378.107 115.354,378.595 115.393,379.190 115.392 L 380.274 115.390 381.619 111.743 L 382.964 108.096 384.076 108.096 C 385.130 108.096,385.633 107.686,385.633 106.827 C 385.633 106.772,385.171 106.727,384.607 106.727 C 383.423 106.727,383.423 106.728,384.065 105.585 C 384.612 104.611,385.293 104.219,386.436 104.219 C 387.161 104.219,388.209 103.298,387.869 102.959 C 387.580 102.669,385.635 102.666,384.747 102.953 M274.444 104.618 C 273.481 107.314,273.561 107.213,272.724 106.795 C 269.778 105.326,265.232 108.987,265.225 112.836 C 265.220 115.409,267.600 116.395,270.212 114.903 C 270.980 114.463,270.981 114.463,270.860 114.928 C 270.752 115.342,270.843 115.393,271.686 115.388 L 272.634 115.383 274.800 109.533 C 277.474 102.314,277.370 102.851,276.094 102.851 L 275.075 102.851 274.444 104.618 M291.114 108.837 C 289.883 112.129,288.825 114.958,288.764 115.122 C 288.679 115.348,288.920 115.404,289.752 115.350 L 290.852 115.279 291.939 112.429 C 293.227 109.051,294.021 108.096,295.542 108.096 C 297.081 108.096,297.106 108.509,295.785 112.099 C 295.156 113.809,294.641 115.255,294.641 115.313 C 294.641 115.371,295.118 115.387,295.700 115.349 L 296.760 115.279 297.867 112.346 C 299.791 107.247,298.859 105.464,294.992 106.841 C 293.756 107.281,293.733 107.536,295.300 103.478 L 295.542 102.851 294.447 102.851 L 293.352 102.851 291.114 108.837 M368.879 108.837 C 367.648 112.129,366.590 114.958,366.529 115.122 C 366.444 115.348,366.686 115.404,367.523 115.350 L 368.628 115.279 370.510 110.262 C 371.545 107.503,372.596 104.706,372.847 104.048 L 373.303 102.851 372.210 102.851 L 371.117 102.851 368.879 108.837 M201.327 103.429 C 200.152 104.067,200.238 105.359,201.456 105.359 C 202.959 105.359,203.983 103.572,202.680 103.222 C 202.016 103.045,202.042 103.041,201.327 103.429 M304.862 103.429 C 303.618 104.104,303.862 105.359,305.238 105.359 C 306.562 105.359,307.394 103.538,306.214 103.222 C 305.551 103.045,305.577 103.041,304.862 103.429 M377.073 103.296 C 375.745 103.834,375.694 105.205,376.998 105.314 C 378.246 105.419,379.186 104.190,378.433 103.437 C 378.038 103.042,377.768 103.014,377.073 103.296 M182.636 103.459 C 182.309 103.546,181.278 106.101,177.927 115.132 C 177.682 115.791,183.473 115.388,184.995 114.641 C 187.795 113.266,188.910 109.800,186.772 109.122 C 186.348 108.987,186.436 108.880,187.494 108.247 C 191.766 105.688,188.046 102.021,182.636 103.459 M186.722 105.030 C 188.158 106.036,185.980 108.324,183.588 108.324 C 183.082 108.324,182.668 108.298,182.668 108.267 C 182.668 108.216,182.999 107.338,183.783 105.302 C 184.071 104.556,185.814 104.394,186.722 105.030 M286.187 104.940 C 285.552 105.109,285.311 105.329,285.089 105.942 C 284.843 106.622,284.704 106.727,284.048 106.727 C 283.456 106.727,283.262 106.839,283.154 107.241 C 282.941 108.035,282.971 108.096,283.580 108.096 C 284.310 108.096,284.316 108.050,283.227 110.950 C 281.805 114.734,282.289 115.925,285.067 115.480 C 286.371 115.272,286.839 114.025,285.614 114.025 C 284.282 114.025,284.291 113.832,285.799 109.863 L 286.471 108.096 287.679 108.096 C 288.738 108.096,288.903 108.033,289.024 107.583 C 289.246 106.755,289.217 106.727,288.117 106.727 C 286.971 106.727,287.021 106.848,287.482 105.188 C 287.641 104.617,287.498 104.589,286.187 104.940 M347.606 104.930 C 347.072 105.084,346.773 105.365,346.534 105.936 C 346.258 106.596,346.087 106.727,345.502 106.727 C 344.959 106.727,344.750 106.860,344.578 107.312 C 344.275 108.109,344.268 108.096,345.040 108.096 C 345.416 108.096,345.724 108.122,345.724 108.153 C 345.724 108.185,345.313 109.288,344.812 110.605 C 343.213 114.800,343.382 115.528,345.946 115.469 C 347.542 115.432,347.435 115.484,347.635 114.652 C 347.777 114.060,347.741 114.025,346.996 114.025 C 345.820 114.025,345.811 113.770,346.881 110.811 L 347.864 108.096 349.038 108.096 C 350.075 108.096,350.243 108.028,350.477 107.515 C 350.845 106.707,350.868 106.727,349.601 106.727 C 348.312 106.727,348.342 106.768,348.803 105.666 C 348.991 105.216,349.145 104.809,349.145 104.761 C 349.145 104.620,348.397 104.702,347.606 104.930 M195.129 107.042 C 194.122 107.551,194.066 107.558,194.198 107.142 C 194.324 106.745,194.239 106.707,193.390 106.770 L 192.442 106.842 190.866 111.060 C 189.999 113.381,189.288 115.305,189.286 115.336 C 189.283 115.368,189.769 115.393,190.365 115.393 L 191.448 115.393 192.360 112.840 C 193.501 109.648,194.579 108.324,196.038 108.324 C 196.898 108.324,197.491 107.643,197.491 106.654 C 197.491 106.310,196.135 106.532,195.129 107.042 M208.881 106.716 C 208.560 106.813,208.072 107.013,207.797 107.160 C 207.384 107.381,207.298 107.367,207.298 107.078 C 207.298 106.824,207.058 106.727,206.426 106.727 L 205.554 106.727 204.027 110.889 C 203.186 113.178,202.501 115.128,202.504 115.222 C 202.515 115.609,204.510 115.398,204.670 114.994 C 204.757 114.775,205.170 113.658,205.588 112.511 C 206.873 108.985,207.607 108.099,209.247 108.097 C 210.774 108.095,210.801 108.600,209.465 112.121 C 208.197 115.462,208.197 115.393,209.433 115.393 L 210.429 115.393 211.600 112.197 C 213.438 107.179,212.642 105.574,208.881 106.716 M218.289 107.197 C 212.573 110.053,213.899 117.258,219.692 114.820 C 220.301 114.564,219.679 115.722,218.717 116.637 C 217.897 117.417,215.571 117.740,214.584 117.212 C 213.840 116.814,212.680 118.017,213.341 118.501 C 213.945 118.942,216.016 119.118,217.318 118.838 C 220.053 118.252,221.242 117.096,222.500 113.797 C 222.954 112.605,223.757 110.527,224.284 109.179 L 225.241 106.727 224.244 106.727 C 223.571 106.727,223.204 106.838,223.116 107.068 C 223.006 107.355,222.896 107.337,222.409 106.954 C 221.525 106.259,219.984 106.350,218.289 107.197 M235.436 106.856 C 231.606 108.264,229.716 114.172,232.772 115.181 C 233.720 115.494,235.431 115.313,236.181 114.821 C 236.659 114.508,236.691 114.513,236.561 114.880 C 235.832 116.949,233.142 118.094,231.146 117.184 C 230.646 116.956,230.514 116.993,230.117 117.469 C 229.412 118.316,229.545 118.533,230.948 118.824 C 233.695 119.394,236.657 118.318,237.908 116.294 C 238.389 115.517,241.733 107.219,241.733 106.804 C 241.733 106.520,239.874 106.780,239.759 107.079 C 239.640 107.390,239.574 107.386,239.193 107.041 C 238.612 106.515,236.628 106.418,235.436 106.856 M247.052 106.873 C 244.985 107.605,243.033 110.057,242.725 112.310 C 242.082 116.999,249.412 116.443,251.681 111.631 C 253.435 107.913,251.046 105.458,247.052 106.873 M258.837 106.713 C 253.182 108.439,252.087 116.105,257.583 115.491 C 260.697 115.143,263.112 112.782,263.535 109.674 C 263.862 107.272,261.624 105.862,258.837 106.713 M312.415 106.716 C 312.095 106.813,311.592 107.021,311.298 107.179 C 310.832 107.428,310.781 107.417,310.905 107.096 C 311.021 106.792,310.875 106.727,310.067 106.727 L 309.088 106.727 307.566 110.896 C 305.759 115.841,305.811 115.393,307.050 115.393 L 308.056 115.393 308.676 113.740 C 310.491 108.896,311.070 108.096,312.759 108.096 C 314.311 108.096,314.341 108.589,312.999 112.121 C 311.731 115.462,311.732 115.393,312.969 115.393 L 313.965 115.393 315.016 112.600 C 317.023 107.264,316.264 105.548,312.415 106.716 M322.098 107.046 C 316.174 109.804,317.279 117.317,323.240 114.815 C 323.867 114.552,322.892 116.248,322.064 116.860 C 321.334 117.401,319.351 117.599,318.315 117.235 C 317.341 116.893,316.132 117.957,316.876 118.501 C 317.479 118.942,319.551 119.118,320.852 118.838 C 323.700 118.228,324.758 117.131,326.265 113.227 C 326.847 111.722,327.652 109.644,328.055 108.609 L 328.788 106.727 327.816 106.727 C 327.143 106.727,326.802 106.838,326.707 107.087 C 326.587 107.400,326.492 107.385,325.968 106.973 C 325.141 106.323,323.587 106.352,322.098 107.046 M333.295 106.842 C 330.553 107.812,330.118 110.177,332.421 111.597 C 334.849 113.093,332.568 114.872,329.729 113.695 C 329.470 113.587,329.207 113.750,328.867 114.227 L 328.378 114.914 328.889 115.187 C 329.170 115.337,330.073 115.460,330.897 115.460 C 335.214 115.460,337.387 111.829,334.079 110.141 C 332.004 109.082,333.593 107.255,335.844 108.111 C 336.415 108.328,336.539 108.285,337.000 107.712 L 337.515 107.070 336.888 106.795 C 336.045 106.426,334.412 106.447,333.295 106.842 M355.148 106.873 C 351.478 108.173,349.344 113.704,351.971 115.110 C 355.267 116.875,360.310 113.356,360.317 109.285 C 360.322 106.806,358.171 105.802,355.148 106.873 M389.584 106.861 C 386.513 107.988,384.281 112.403,385.769 114.407 C 386.963 116.016,392.000 115.860,392.015 114.214 C 392.018 113.879,391.807 113.848,390.317 113.961 C 388.049 114.132,387.400 113.763,387.502 112.358 L 387.571 111.403 390.687 111.339 L 393.802 111.276 394.051 110.564 C 395.127 107.475,392.912 105.639,389.584 106.861 M198.344 110.892 C 197.497 113.180,196.804 115.128,196.805 115.222 C 196.810 115.609,198.809 115.398,198.969 114.994 C 199.056 114.775,199.725 113.005,200.456 111.060 C 201.187 109.116,201.856 107.346,201.943 107.127 C 202.081 106.779,201.957 106.728,200.994 106.730 L 199.886 106.733 198.344 110.892 M301.879 110.892 C 300.050 115.827,300.093 115.435,301.392 115.349 L 302.441 115.279 304.014 111.084 C 304.879 108.776,305.587 106.852,305.587 106.808 C 305.587 106.764,305.100 106.729,304.504 106.730 L 303.421 106.733 301.879 110.892 M375.117 107.355 C 374.286 109.502,372.178 115.202,372.178 115.300 C 372.178 115.365,372.662 115.387,373.253 115.349 L 374.329 115.279 375.874 111.174 C 377.711 106.296,377.660 106.727,376.391 106.727 C 375.476 106.727,375.332 106.799,375.117 107.355 M221.608 108.380 C 222.712 109.263,220.735 113.301,218.957 113.791 C 217.595 114.167,216.988 113.698,216.998 112.277 C 217.018 109.553,219.963 107.064,221.608 108.380 M238.255 108.380 C 238.952 108.937,237.814 112.327,236.637 113.201 C 234.669 114.661,232.928 113.758,233.534 111.593 C 234.265 108.980,236.827 107.237,238.255 108.380 M249.476 108.090 C 250.791 108.794,249.691 112.309,247.757 113.584 C 246.867 114.171,245.476 114.171,245.162 113.584 C 243.930 111.283,247.336 106.945,249.476 108.090 M260.889 108.324 C 262.063 109.497,260.625 112.869,258.557 113.795 C 256.468 114.730,255.490 113.158,256.644 110.718 C 257.743 108.394,259.800 107.234,260.889 108.324 M272.235 108.380 C 272.954 108.955,272.003 112.035,270.773 113.114 C 268.860 114.794,266.897 113.993,267.494 111.776 C 268.231 109.040,270.779 107.215,272.235 108.380 M325.143 108.380 C 325.557 108.712,325.493 109.633,324.954 111.060 C 323.760 114.223,320.512 115.117,320.533 112.277 C 320.552 109.571,323.508 107.072,325.143 108.380 M357.710 108.192 C 358.779 108.974,357.692 112.329,355.997 113.481 C 354.984 114.169,353.599 114.221,353.258 113.584 C 351.978 111.193,355.682 106.708,357.710 108.192 M392.110 108.381 C 392.301 108.677,392.389 109.159,392.317 109.521 L 392.193 110.148 390.159 110.148 C 387.936 110.148,387.822 110.012,389.090 108.868 C 390.346 107.734,391.567 107.537,392.110 108.381 M185.042 110.228 C 186.765 111.357,184.406 114.025,181.684 114.025 C 180.413 114.025,180.440 114.217,181.357 111.693 L 182.098 109.653 183.274 109.747 C 183.921 109.798,184.717 110.014,185.042 110.228 M74.572 126.958 C 81.167 127.118,87.063 127.123,86.966 126.967 C 86.908 126.873,83.505 126.818,79.405 126.845 C 75.305 126.872,73.130 126.923,74.572 126.958 " stroke="none" fill="#8c8c8c" fill-rule="evenodd"/><path id="path3" d="M95.429 137.871 C 89.665 143.963,84.372 149.580,83.667 150.355 L 82.386 151.763 84.525 140.591 C 85.701 134.446,86.722 128.880,86.792 128.221 L 86.920 127.024 79.492 127.024 C 75.406 127.024,72.063 127.050,72.063 127.081 C 72.062 127.112,71.492 130.011,70.797 133.523 C 69.389 140.631,61.453 181.608,61.223 182.956 L 61.076 183.815 68.672 183.755 L 76.267 183.694 78.099 174.189 L 79.932 164.683 81.658 162.795 L 83.385 160.907 86.246 166.485 C 87.820 169.554,90.462 174.706,92.117 177.936 L 95.126 183.808 104.234 183.808 C 109.243 183.808,113.337 183.731,113.332 183.637 C 113.326 183.543,109.696 176.693,105.263 168.415 L 97.204 153.364 110.290 140.250 C 117.487 133.038,123.375 127.060,123.375 126.966 C 123.375 126.873,119.445 126.796,114.643 126.796 L 105.910 126.796 95.429 137.871 " stroke="none" fill="#1c9c3b" fill-rule="evenodd"/><path id="path4" d="M58.549 86.260 C 58.341 87.796,57.897 91.066,57.563 93.526 L 56.955 97.999 56.064 97.772 C 55.573 97.648,55.133 97.585,55.086 97.633 C 55.039 97.680,55.303 104.390,55.673 112.543 C 56.043 120.696,56.316 127.792,56.280 128.312 L 56.214 129.257 57.441 129.532 C 58.164 129.694,58.726 129.721,58.809 129.599 C 61.118 126.219,66.738 118.146,66.967 117.881 C 67.252 117.550,67.389 117.555,68.524 117.938 C 73.138 119.496,85.214 119.206,88.456 117.459 C 88.700 117.328,89.553 114.802,90.973 109.998 C 92.154 106.004,93.172 102.591,93.236 102.412 C 93.300 102.233,93.133 102.306,92.865 102.574 C 90.528 104.911,84.697 105.279,77.715 103.531 C 75.505 102.978,72.253 101.950,72.005 101.726 C 71.910 101.640,72.192 98.138,72.632 93.943 C 73.071 89.749,73.457 85.958,73.489 85.520 L 73.546 84.723 66.819 84.112 C 63.119 83.777,59.829 83.494,59.510 83.484 C 58.937 83.467,58.922 83.508,58.549 86.260 " stroke="none" fill="#079bd5" fill-rule="evenodd"/></g></svg>